<mxfile host="app.diagrams.net" agent="Mozilla/5.0 (Windows NT 10.0; Win64; x64) AppleWebKit/537.36 (KHTML, like Gecko) Chrome/128.0.0.0 Safari/537.36" version="24.7.7">
  <diagram name="Page-1" id="e7e014a7-5840-1c2e-5031-d8a46d1fe8dd">
    <mxGraphModel dx="1486" dy="974" grid="1" gridSize="10" guides="1" tooltips="1" connect="1" arrows="1" fold="1" page="1" pageScale="1" pageWidth="1169" pageHeight="826" background="none" math="0" shadow="0">
      <root>
        <mxCell id="0" />
        <mxCell id="1" parent="0" />
        <mxCell id="IfubPos9lp6Sgl9D3y1j-355" value="" style="rounded=0;whiteSpace=wrap;html=1;fillColor=none;" vertex="1" parent="1">
          <mxGeometry x="994" y="390" width="120" height="60" as="geometry" />
        </mxCell>
        <mxCell id="IfubPos9lp6Sgl9D3y1j-356" value="" style="rounded=0;whiteSpace=wrap;html=1;fillColor=none;" vertex="1" parent="1">
          <mxGeometry x="764.5" y="390" width="120" height="60" as="geometry" />
        </mxCell>
        <mxCell id="IfubPos9lp6Sgl9D3y1j-357" value="" style="rounded=0;whiteSpace=wrap;html=1;fillColor=none;" vertex="1" parent="1">
          <mxGeometry x="535.5" y="390" width="120" height="60" as="geometry" />
        </mxCell>
        <mxCell id="IfubPos9lp6Sgl9D3y1j-358" value="&lt;font style=&quot;font-size: 22px;&quot;&gt;Actor&lt;/font&gt;" style="text;html=1;align=center;verticalAlign=middle;whiteSpace=wrap;rounded=0;fontSize=22;" vertex="1" parent="1">
          <mxGeometry x="280" y="405" width="170" height="30" as="geometry" />
        </mxCell>
        <mxCell id="IfubPos9lp6Sgl9D3y1j-359" value="&lt;font style=&quot;font-size: 22px;&quot;&gt;Database&lt;/font&gt;" style="text;html=1;align=center;verticalAlign=middle;whiteSpace=wrap;rounded=0;fontSize=22;" vertex="1" parent="1">
          <mxGeometry x="510.5" y="405" width="170" height="30" as="geometry" />
        </mxCell>
        <mxCell id="IfubPos9lp6Sgl9D3y1j-360" value="System" style="text;html=1;align=center;verticalAlign=middle;whiteSpace=wrap;rounded=0;fontSize=22;" vertex="1" parent="1">
          <mxGeometry x="739.5" y="405" width="170" height="30" as="geometry" />
        </mxCell>
        <mxCell id="IfubPos9lp6Sgl9D3y1j-361" value="&lt;font style=&quot;font-size: 22px;&quot;&gt;System&lt;/font&gt;" style="text;html=1;align=center;verticalAlign=middle;whiteSpace=wrap;rounded=0;fontSize=22;" vertex="1" parent="1">
          <mxGeometry x="969" y="405" width="170" height="30" as="geometry" />
        </mxCell>
        <mxCell id="IfubPos9lp6Sgl9D3y1j-362" value="" style="rounded=1;whiteSpace=wrap;html=1;arcSize=0;" vertex="1" parent="1">
          <mxGeometry x="357.5" y="522" width="15" height="720" as="geometry" />
        </mxCell>
        <mxCell id="IfubPos9lp6Sgl9D3y1j-363" value="" style="rounded=1;whiteSpace=wrap;html=1;arcSize=0;" vertex="1" parent="1">
          <mxGeometry x="588" y="562" width="15" height="680" as="geometry" />
        </mxCell>
        <mxCell id="IfubPos9lp6Sgl9D3y1j-364" value="" style="rounded=1;whiteSpace=wrap;html=1;arcSize=0;" vertex="1" parent="1">
          <mxGeometry x="817" y="602" width="15" height="640" as="geometry" />
        </mxCell>
        <mxCell id="IfubPos9lp6Sgl9D3y1j-365" value="" style="rounded=1;whiteSpace=wrap;html=1;arcSize=0;" vertex="1" parent="1">
          <mxGeometry x="1046.5" y="642" width="15" height="600" as="geometry" />
        </mxCell>
        <mxCell id="IfubPos9lp6Sgl9D3y1j-366" value="" style="endArrow=classic;html=1;rounded=0;entryX=-0.002;entryY=0.117;entryDx=0;entryDy=0;entryPerimeter=0;" edge="1" parent="1" target="IfubPos9lp6Sgl9D3y1j-363">
          <mxGeometry width="50" height="50" relative="1" as="geometry">
            <mxPoint x="372.5" y="642" as="sourcePoint" />
            <mxPoint x="588.815" y="642.0000000000001" as="targetPoint" />
          </mxGeometry>
        </mxCell>
        <mxCell id="IfubPos9lp6Sgl9D3y1j-367" value="&lt;font style=&quot;font-size: 17px;&quot;&gt;login&lt;/font&gt;" style="text;html=1;align=center;verticalAlign=middle;whiteSpace=wrap;rounded=0;fontStyle=2" vertex="1" parent="1">
          <mxGeometry x="399.5" y="611" width="150" height="30" as="geometry" />
        </mxCell>
        <mxCell id="IfubPos9lp6Sgl9D3y1j-368" value="" style="endArrow=classic;html=1;rounded=0;entryX=0.089;entryY=0.125;entryDx=0;entryDy=0;entryPerimeter=0;exitX=1.026;exitY=0.177;exitDx=0;exitDy=0;exitPerimeter=0;" edge="1" parent="1">
          <mxGeometry width="50" height="50" relative="1" as="geometry">
            <mxPoint x="603.3899999999999" y="682.36" as="sourcePoint" />
            <mxPoint x="817.335" y="682" as="targetPoint" />
            <Array as="points">
              <mxPoint x="603.5" y="682" />
            </Array>
          </mxGeometry>
        </mxCell>
        <mxCell id="IfubPos9lp6Sgl9D3y1j-369" value="&lt;span style=&quot;font-size: 17px;&quot;&gt;credentials process&lt;/span&gt;" style="text;html=1;align=center;verticalAlign=middle;whiteSpace=wrap;rounded=0;fontStyle=2" vertex="1" parent="1">
          <mxGeometry x="619.5" y="641" width="182.5" height="30" as="geometry" />
        </mxCell>
        <mxCell id="IfubPos9lp6Sgl9D3y1j-370" value="" style="endArrow=classic;html=1;rounded=0;entryX=-0.011;entryY=0.133;entryDx=0;entryDy=0;entryPerimeter=0;exitX=1.003;exitY=0.2;exitDx=0;exitDy=0;exitPerimeter=0;" edge="1" parent="1">
          <mxGeometry width="50" height="50" relative="1" as="geometry">
            <mxPoint x="832" y="920.5" as="sourcePoint" />
            <mxPoint x="1046" y="920.5" as="targetPoint" />
            <Array as="points">
              <mxPoint x="833" y="920.5" />
            </Array>
          </mxGeometry>
        </mxCell>
        <mxCell id="IfubPos9lp6Sgl9D3y1j-371" value="&lt;span style=&quot;font-size: 17px;&quot;&gt;valid credentials&lt;/span&gt;" style="text;html=1;align=center;verticalAlign=middle;whiteSpace=wrap;rounded=0;fontStyle=2" vertex="1" parent="1">
          <mxGeometry x="849.5" y="882.5" width="182.5" height="30" as="geometry" />
        </mxCell>
        <mxCell id="IfubPos9lp6Sgl9D3y1j-372" value="" style="rounded=0;whiteSpace=wrap;html=1;" vertex="1" parent="1">
          <mxGeometry x="829.5" y="712" width="20" height="50" as="geometry" />
        </mxCell>
        <mxCell id="IfubPos9lp6Sgl9D3y1j-373" value="" style="endArrow=classic;html=1;rounded=0;exitX=1.003;exitY=0.2;exitDx=0;exitDy=0;exitPerimeter=0;entryX=1;entryY=0.5;entryDx=0;entryDy=0;" edge="1" parent="1" target="IfubPos9lp6Sgl9D3y1j-372">
          <mxGeometry width="50" height="50" relative="1" as="geometry">
            <mxPoint x="832" y="682" as="sourcePoint" />
            <mxPoint x="859.5" y="742" as="targetPoint" />
            <Array as="points">
              <mxPoint x="833" y="682" />
              <mxPoint x="869.5" y="682" />
              <mxPoint x="869.5" y="737" />
            </Array>
          </mxGeometry>
        </mxCell>
        <mxCell id="IfubPos9lp6Sgl9D3y1j-374" value="&lt;font style=&quot;font-size: 16px;&quot;&gt;Data Validation&lt;/font&gt;" style="text;html=1;align=center;verticalAlign=middle;whiteSpace=wrap;rounded=0;" vertex="1" parent="1">
          <mxGeometry x="879.5" y="722" width="77" height="30" as="geometry" />
        </mxCell>
        <mxCell id="IfubPos9lp6Sgl9D3y1j-375" value="" style="endArrow=none;dashed=1;html=1;dashPattern=1 3;strokeWidth=2;rounded=0;exitX=1.143;exitY=0.664;exitDx=0;exitDy=0;exitPerimeter=0;" edge="1" parent="1">
          <mxGeometry width="50" height="50" relative="1" as="geometry">
            <mxPoint x="604.575" y="1040.4" as="sourcePoint" />
            <mxPoint x="816.9299999999998" y="1040" as="targetPoint" />
          </mxGeometry>
        </mxCell>
        <mxCell id="IfubPos9lp6Sgl9D3y1j-376" value="&lt;span style=&quot;font-size: 17px;&quot;&gt;incorrect password&lt;/span&gt;" style="text;html=1;align=center;verticalAlign=middle;whiteSpace=wrap;rounded=0;fontStyle=2" vertex="1" parent="1">
          <mxGeometry x="619.5" y="997" width="182.5" height="30" as="geometry" />
        </mxCell>
        <mxCell id="IfubPos9lp6Sgl9D3y1j-377" value="&lt;span style=&quot;font-size: 17px;&quot;&gt;incorrect password&lt;/span&gt;" style="text;html=1;align=center;verticalAlign=middle;whiteSpace=wrap;rounded=0;fontStyle=2" vertex="1" parent="1">
          <mxGeometry x="389.56999999999994" y="965" width="182.5" height="30" as="geometry" />
        </mxCell>
        <mxCell id="IfubPos9lp6Sgl9D3y1j-378" value="" style="endArrow=none;dashed=1;html=1;dashPattern=1 3;strokeWidth=2;rounded=0;exitX=1.143;exitY=0.664;exitDx=0;exitDy=0;exitPerimeter=0;" edge="1" parent="1">
          <mxGeometry width="50" height="50" relative="1" as="geometry">
            <mxPoint x="374.645" y="999.4000000000001" as="sourcePoint" />
            <mxPoint x="587" y="999" as="targetPoint" />
          </mxGeometry>
        </mxCell>
        <mxCell id="IfubPos9lp6Sgl9D3y1j-379" value="&lt;span style=&quot;font-size: 17px;&quot;&gt;valid credentials&lt;/span&gt;" style="text;html=1;align=center;verticalAlign=middle;whiteSpace=wrap;rounded=0;fontStyle=2" vertex="1" parent="1">
          <mxGeometry x="850.9300000000001" y="1204" width="182.5" height="30" as="geometry" />
        </mxCell>
        <mxCell id="IfubPos9lp6Sgl9D3y1j-380" value="" style="endArrow=none;dashed=1;html=1;dashPattern=1 3;strokeWidth=2;rounded=0;exitX=1;exitY=1;exitDx=0;exitDy=0;" edge="1" parent="1" source="IfubPos9lp6Sgl9D3y1j-364">
          <mxGeometry width="50" height="50" relative="1" as="geometry">
            <mxPoint x="836.0050000000001" y="1242.4" as="sourcePoint" />
            <mxPoint x="1048.36" y="1242" as="targetPoint" />
          </mxGeometry>
        </mxCell>
        <mxCell id="IfubPos9lp6Sgl9D3y1j-381" value="&lt;span style=&quot;font-size: 17px;&quot;&gt;login&amp;nbsp;successful&lt;/span&gt;" style="text;html=1;align=center;verticalAlign=middle;whiteSpace=wrap;rounded=0;fontStyle=2" vertex="1" parent="1">
          <mxGeometry x="621.4300000000001" y="1202.8200000000002" width="182.5" height="30" as="geometry" />
        </mxCell>
        <mxCell id="IfubPos9lp6Sgl9D3y1j-382" value="" style="endArrow=none;dashed=1;html=1;dashPattern=1 3;strokeWidth=2;rounded=0;exitX=1;exitY=1;exitDx=0;exitDy=0;" edge="1" parent="1">
          <mxGeometry width="50" height="50" relative="1" as="geometry">
            <mxPoint x="603" y="1240.8200000000002" as="sourcePoint" />
            <mxPoint x="818.8599999999999" y="1240.8200000000002" as="targetPoint" />
          </mxGeometry>
        </mxCell>
        <mxCell id="IfubPos9lp6Sgl9D3y1j-383" value="&lt;span style=&quot;font-size: 17px;&quot;&gt;homepage&lt;/span&gt;" style="text;html=1;align=center;verticalAlign=middle;whiteSpace=wrap;rounded=0;fontStyle=2" vertex="1" parent="1">
          <mxGeometry x="390.57000000000005" y="1202.8200000000002" width="182.5" height="30" as="geometry" />
        </mxCell>
        <mxCell id="IfubPos9lp6Sgl9D3y1j-384" value="" style="endArrow=none;dashed=1;html=1;dashPattern=1 3;strokeWidth=2;rounded=0;exitX=1;exitY=1;exitDx=0;exitDy=0;" edge="1" parent="1">
          <mxGeometry width="50" height="50" relative="1" as="geometry">
            <mxPoint x="372.14" y="1240.8200000000002" as="sourcePoint" />
            <mxPoint x="588" y="1240.8200000000002" as="targetPoint" />
          </mxGeometry>
        </mxCell>
        <mxCell id="IfubPos9lp6Sgl9D3y1j-385" value="" style="endArrow=none;dashed=1;html=1;dashPattern=1 3;strokeWidth=2;rounded=0;entryX=0.5;entryY=1;entryDx=0;entryDy=0;exitX=0.5;exitY=0;exitDx=0;exitDy=0;" edge="1" parent="1" source="IfubPos9lp6Sgl9D3y1j-362" target="IfubPos9lp6Sgl9D3y1j-358">
          <mxGeometry width="50" height="50" relative="1" as="geometry">
            <mxPoint x="439.5" y="552" as="sourcePoint" />
            <mxPoint x="489.5" y="502" as="targetPoint" />
          </mxGeometry>
        </mxCell>
        <mxCell id="IfubPos9lp6Sgl9D3y1j-386" value="" style="endArrow=none;dashed=1;html=1;dashPattern=1 3;strokeWidth=2;rounded=0;entryX=0.5;entryY=1;entryDx=0;entryDy=0;exitX=0.5;exitY=0;exitDx=0;exitDy=0;" edge="1" parent="1" source="IfubPos9lp6Sgl9D3y1j-363" target="IfubPos9lp6Sgl9D3y1j-357">
          <mxGeometry width="50" height="50" relative="1" as="geometry">
            <mxPoint x="375.5" y="532" as="sourcePoint" />
            <mxPoint x="375.5" y="445" as="targetPoint" />
          </mxGeometry>
        </mxCell>
        <mxCell id="IfubPos9lp6Sgl9D3y1j-387" value="" style="endArrow=none;dashed=1;html=1;dashPattern=1 3;strokeWidth=2;rounded=0;entryX=0.5;entryY=1;entryDx=0;entryDy=0;exitX=0.5;exitY=0;exitDx=0;exitDy=0;" edge="1" parent="1" source="IfubPos9lp6Sgl9D3y1j-364">
          <mxGeometry width="50" height="50" relative="1" as="geometry">
            <mxPoint x="824.0799999999999" y="562" as="sourcePoint" />
            <mxPoint x="824.0799999999999" y="450" as="targetPoint" />
          </mxGeometry>
        </mxCell>
        <mxCell id="IfubPos9lp6Sgl9D3y1j-388" value="" style="endArrow=none;dashed=1;html=1;dashPattern=1 3;strokeWidth=2;rounded=0;entryX=0.5;entryY=1;entryDx=0;entryDy=0;exitX=0.5;exitY=0;exitDx=0;exitDy=0;" edge="1" parent="1" source="IfubPos9lp6Sgl9D3y1j-365">
          <mxGeometry width="50" height="50" relative="1" as="geometry">
            <mxPoint x="1054.08" y="602" as="sourcePoint" />
            <mxPoint x="1053.66" y="450" as="targetPoint" />
          </mxGeometry>
        </mxCell>
        <mxCell id="IfubPos9lp6Sgl9D3y1j-389" value="&lt;font style=&quot;font-size: 14px;&quot;&gt;Esa Evan Sardi // XI PPLG 1&lt;/font&gt;" style="text;html=1;align=left;verticalAlign=middle;whiteSpace=wrap;rounded=0;" vertex="1" parent="1">
          <mxGeometry x="357.5" y="1257" width="183.75" height="30" as="geometry" />
        </mxCell>
      </root>
    </mxGraphModel>
  </diagram>
</mxfile>
